<?xml version="1.0" encoding="UTF-8"?>
<svg id="Layer_2" data-name="Layer 2" xmlns="http://www.w3.org/2000/svg" viewBox="0 0 857.22 3207.2">
  <defs>
    <style>
      .cls-1 {
        fill: #0071bc;
      }
    </style>
  </defs>
  <g id="Layer_1-2" data-name="Layer 1">
    <path class="cls-1" d="M93.7,0c174.42,51.35,338.86,134.52,485.79,241.7,18.48,13.54,36.71,27.82,53.99,43.62,17.46,16.02,33.77,33.37,47.59,52.87,46.75,65,49.2,138.56,15.63,209.87-18.87,40.36-46.44,75.84-77.85,107.11-34.76,34.72-73.8,64.88-114.6,91.89-130.36,87.85-285.01,141.76-397.21,254.42-22.04,23.09-41.29,48.83-56,77.14-10.72,20.86-19.13,43.22-25.05,65.91-11.88,45.82-14.48,93.69-10.94,140.79,5.09,69.7,23.12,137.99,45.99,203.84,36.31,105.74,88.01,205.92,148.12,299.99,42.28,65.75,89.06,128.69,139.72,188.27,168.32,198.01,373.66,371.52,489.17,608.89,14.47,29.33,25.48,62.38,15.08,95.21-11.38,37.01-43.32,62.77-73.42,83.9-63.93,43.67-126.22,91.88-174.04,152.93-23.67,30.1-43.42,63.39-56.92,99.25-9.15,24.64-16.72,51.3-11.05,77.38,6.65,31.68,31.88,55.65,59.21,71.48,28.92,16.86,61.08,27.74,93.26,36.85,0,0-.93,3.89-.93,3.89-54.29-11.24-117.61-28.32-152.3-75.17-22.94-31.6-23.12-68.45-13.32-104.64,9.01-33.8,23.31-66.11,41.5-95.94,36.18-59.6,86.24-109.18,139.82-152.73,25.68-21.37,54.6-39.94,79.52-61.68,14.39-12.71,27.76-28.15,32.79-46.06,7.91-28.24-9.07-57.11-22.1-81.83-31.33-58.76-68.64-114.22-109.09-167.08-170.76-221.03-395.38-409.25-531.21-659.51-7.88-13.83-16.95-31.1-24.3-45.22-36.18-71.02-66.98-145.21-89.71-221.61,0,0-4.88-16.37-4.88-16.37,0,0-1.22-4.09-1.22-4.09l-.61-2.05c-8.33-30.73-16.52-62.16-22.12-93.54-20.67-111.2-19.69-234.7,43.42-332.7,62.86-96.77,165.44-156.8,260.92-216.59,97.32-59.79,197.44-117.42,277.45-199.84,72.27-74.5,126.92-176.41,59.35-272.9-24.78-35.8-57.96-64.28-92.43-91C418.68,156.9,259.76,68.98,92.4,3.79c0,0,1.29-3.79,1.29-3.79h0Z"/>
  </g>
</svg>