<?xml version="1.0" encoding="UTF-8"?>
<svg id="Layer_2" data-name="Layer 2" xmlns="http://www.w3.org/2000/svg" viewBox="0 0 317.91 68.34">
  <defs>
    <style>
      .cls-1 {
        fill: #94abf0;
      }
    </style>
  </defs>
  <g id="Layer_1-2" data-name="Layer 1">
    <g>
      <path class="cls-1" d="M55.02,60.27c2.15,0,3.9-1.75,3.9-3.9s-1.75-3.9-3.9-3.9-3.9,1.75-3.9,3.9,1.75,3.9,3.9,3.9Z"/>
      <path class="cls-1" d="M55.02,60.27c2.15,0,3.9-1.75,3.9-3.9s-1.75-3.9-3.9-3.9-3.9,1.75-3.9,3.9,1.75,3.9,3.9,3.9Z"/>
      <path class="cls-1" d="M55.02,60.27c2.15,0,3.9-1.75,3.9-3.9s-1.75-3.9-3.9-3.9-3.9,1.75-3.9,3.9,1.75,3.9,3.9,3.9Z"/>
      <path class="cls-1" d="M55.02,60.27c2.15,0,3.9-1.75,3.9-3.9s-1.75-3.9-3.9-3.9-3.9,1.75-3.9,3.9,1.75,3.9,3.9,3.9Z"/>
      <path class="cls-1" d="M55,60.27c2.15,0,3.9-1.75,3.9-3.9s-1.75-3.9-3.9-3.9-3.9,1.75-3.9,3.9,1.75,3.9,3.9,3.9Z"/>
      <path class="cls-1" d="M54.98,60.29c2.15,0,3.9-1.75,3.9-3.9s-1.75-3.9-3.9-3.9-3.9,1.75-3.9,3.9,1.75,3.9,3.9,3.9Z"/>
      <path class="cls-1" d="M54.94,60.32c2.15,0,3.9-1.75,3.9-3.9s-1.75-3.9-3.9-3.9-3.9,1.75-3.9,3.9,1.75,3.9,3.9,3.9Z"/>
      <path class="cls-1" d="M54.86,60.4c2.15,0,3.9-1.75,3.9-3.9s-1.75-3.9-3.9-3.9-3.9,1.75-3.9,3.9,1.75,3.9,3.9,3.9Z"/>
      <path class="cls-1" d="M54.73,60.52c2.15,0,3.9-1.75,3.9-3.9s-1.75-3.9-3.9-3.9-3.9,1.75-3.9,3.9,1.75,3.9,3.9,3.9Z"/>
      <path class="cls-1" d="M54.53,60.71c2.15,0,3.9-1.75,3.9-3.9s-1.75-3.9-3.9-3.9-3.9,1.75-3.9,3.9,1.75,3.9,3.9,3.9Z"/>
      <path class="cls-1" d="M54.22,60.99c2.15,0,3.9-1.75,3.9-3.9s-1.75-3.9-3.9-3.9-3.9,1.75-3.9,3.9,1.75,3.9,3.9,3.9Z"/>
      <path class="cls-1" d="M53.77,61.36c2.15,0,3.9-1.75,3.9-3.9s-1.75-3.9-3.9-3.9-3.9,1.75-3.9,3.9,1.75,3.9,3.9,3.9Z"/>
      <path class="cls-1" d="M53.15,61.88c2.15,0,3.9-1.75,3.9-3.9s-1.75-3.9-3.9-3.9-3.9,1.75-3.9,3.9,1.75,3.9,3.9,3.9Z"/>
      <path class="cls-1" d="M52.27,62.55c2.15,0,3.9-1.75,3.9-3.9s-1.75-3.9-3.9-3.9-3.9,1.75-3.9,3.9,1.75,3.9,3.9,3.9Z"/>
      <path class="cls-1" d="M51.08,63.37c2.15,0,3.9-1.75,3.9-3.9s-1.75-3.9-3.9-3.9-3.9,1.75-3.9,3.9,1.75,3.9,3.9,3.9Z"/>
      <path class="cls-1" d="M49.48,64.36c2.15,0,3.9-1.75,3.9-3.9s-1.75-3.9-3.9-3.9-3.9,1.75-3.9,3.9,1.75,3.9,3.9,3.9Z"/>
      <path class="cls-1" d="M47.35,65.47c2.15,0,3.9-1.75,3.9-3.9s-1.75-3.9-3.9-3.9-3.9,1.75-3.9,3.9,1.75,3.9,3.9,3.9Z"/>
      <path class="cls-1" d="M44.6,66.62c2.15,0,3.9-1.75,3.9-3.9s-1.75-3.9-3.9-3.9-3.9,1.75-3.9,3.9,1.75,3.9,3.9,3.9Z"/>
      <path class="cls-1" d="M41.05,67.68c2.15,0,3.9-1.75,3.9-3.9s-1.75-3.9-3.9-3.9-3.9,1.75-3.9,3.9,1.75,3.9,3.9,3.9Z"/>
      <path class="cls-1" d="M36.61,68.34c2.15,0,3.9-1.75,3.9-3.9s-1.75-3.9-3.9-3.9-3.9,1.75-3.9,3.9,1.75,3.9,3.9,3.9Z"/>
      <path class="cls-1" d="M31.15,68.28c2.15,0,3.9-1.75,3.9-3.9s-1.75-3.9-3.9-3.9-3.9,1.75-3.9,3.9,1.75,3.9,3.9,3.9Z"/>
      <path class="cls-1" d="M24.79,66.92c2.15,0,3.9-1.75,3.9-3.9s-1.75-3.9-3.9-3.9-3.9,1.75-3.9,3.9,1.75,3.9,3.9,3.9Z"/>
      <path class="cls-1" d="M17.81,63.6c2.15,0,3.9-1.75,3.9-3.9s-1.75-3.9-3.9-3.9-3.9,1.75-3.9,3.9,1.75,3.9,3.9,3.9Z"/>
      <path class="cls-1" d="M10.98,57.59c2.15,0,3.9-1.75,3.9-3.9s-1.75-3.9-3.9-3.9-3.9,1.75-3.9,3.9,1.75,3.9,3.9,3.9Z"/>
      <path class="cls-1" d="M5.68,48.39c2.15,0,3.9-1.75,3.9-3.9s-1.75-3.9-3.9-3.9-3.9,1.75-3.9,3.9,1.75,3.9,3.9,3.9Z"/>
      <path class="cls-1" d="M3.9,36.2c2.15,0,3.9-1.75,3.9-3.9s-1.75-3.9-3.9-3.9-3.9,1.75-3.9,3.9,1.75,3.9,3.9,3.9Z"/>
      <path class="cls-1" d="M8.02,22.62c2.15,0,3.9-1.75,3.9-3.9s-1.75-3.9-3.9-3.9-3.9,1.75-3.9,3.9,1.75,3.9,3.9,3.9Z"/>
      <path class="cls-1" d="M19.68,11.31c2.15,0,3.9-1.75,3.9-3.9s-1.75-3.9-3.9-3.9-3.9,1.75-3.9,3.9,1.75,3.9,3.9,3.9Z"/>
      <path class="cls-1" d="M37.84,7.8c2.15,0,3.9-1.75,3.9-3.9s-1.75-3.9-3.9-3.9-3.9,1.75-3.9,3.9,1.75,3.9,3.9,3.9Z"/>
      <path class="cls-1" d="M56.52,17.26c2.15,0,3.9-1.75,3.9-3.9s-1.75-3.9-3.9-3.9-3.9,1.75-3.9,3.9,1.75,3.9,3.9,3.9Z"/>
    </g>
    <g>
      <path class="cls-1" d="M107.41,56.3c-3.27,0-6.07-.72-8.41-2.15s-4.13-3.42-5.39-5.96c-1.26-2.54-1.89-5.46-1.89-8.77s.64-6.26,1.92-8.81c1.28-2.55,3.09-4.54,5.42-5.97,2.34-1.43,5.1-2.14,8.3-2.14,2.66,0,5.01.49,7.06,1.46,2.05.97,3.69,2.34,4.91,4.11,1.22,1.77,1.92,3.83,2.09,6.19h-7.37c-.3-1.58-1.01-2.89-2.12-3.95-1.12-1.06-2.6-1.59-4.46-1.59-1.58,0-2.96.42-4.16,1.27s-2.12,2.06-2.78,3.63c-.66,1.58-.99,3.47-.99,5.67s.33,4.14.98,5.74c.65,1.6,1.57,2.83,2.76,3.69,1.19.86,2.58,1.29,4.19,1.29,1.14,0,2.16-.22,3.06-.65.9-.43,1.66-1.06,2.27-1.88.61-.82,1.03-1.83,1.26-3h7.37c-.18,2.32-.87,4.37-2.05,6.15s-2.78,3.17-4.82,4.18c-2.03,1-4.42,1.5-7.16,1.5Z"/>
      <path class="cls-1" d="M134.2,56.32c-2.07,0-3.94-.37-5.59-1.12-1.66-.75-2.96-1.85-3.92-3.31s-1.44-3.27-1.44-5.41c0-1.85.34-3.37,1.02-4.58.68-1.21,1.61-2.17,2.79-2.9,1.18-.72,2.51-1.27,4-1.65,1.48-.38,3.02-.65,4.61-.82,1.92-.2,3.47-.38,4.67-.54,1.19-.16,2.06-.42,2.61-.77.55-.35.82-.89.82-1.63v-.13c0-1.6-.48-2.85-1.43-3.73-.95-.88-2.32-1.32-4.11-1.32-1.89,0-3.38.41-4.48,1.24-1.1.82-1.84,1.8-2.23,2.92l-7.2-1.02c.57-1.99,1.51-3.65,2.81-5,1.31-1.34,2.91-2.35,4.79-3.03,1.89-.67,3.98-1.01,6.26-1.01,1.58,0,3.15.18,4.71.55,1.56.37,2.99.98,4.28,1.82,1.29.85,2.33,1.99,3.12,3.44.79,1.45,1.18,3.26,1.18,5.43v21.9h-7.41v-4.5h-.26c-.47.91-1.13,1.76-1.97,2.55-.85.79-1.9,1.42-3.17,1.9-1.27.48-2.76.71-4.46.71ZM136.2,50.65c1.55,0,2.89-.31,4.03-.93,1.14-.62,2.01-1.44,2.63-2.46.62-1.02.93-2.14.93-3.34v-3.86c-.24.2-.65.38-1.23.55-.58.17-1.22.32-1.93.45-.71.13-1.41.24-2.11.34-.7.1-1.3.19-1.81.26-1.15.16-2.18.41-3.09.77-.91.35-1.63.85-2.15,1.48s-.79,1.45-.79,2.44c0,1.42.52,2.49,1.56,3.22,1.04.72,2.36,1.09,3.96,1.09Z"/>
      <path class="cls-1" d="M168.4,56.23c-2.57,0-4.87-.66-6.9-1.98s-3.64-3.24-4.81-5.75c-1.18-2.51-1.77-5.57-1.77-9.16s.6-6.71,1.8-9.21,2.82-4.4,4.87-5.69c2.04-1.29,4.33-1.93,6.84-1.93,1.92,0,3.5.32,4.73.97,1.24.65,2.22,1.42,2.94,2.32.72.9,1.29,1.75,1.68,2.55h.32V12.02h7.73v43.64h-7.58v-5.16h-.47c-.4.8-.97,1.64-1.73,2.52-.75.89-1.75,1.64-2.98,2.27-1.24.62-2.79.94-4.67.94ZM170.55,49.91c1.63,0,3.03-.44,4.18-1.33,1.15-.89,2.02-2.13,2.62-3.72s.9-3.44.9-5.56-.3-3.96-.88-5.52c-.59-1.56-1.46-2.78-2.6-3.64s-2.55-1.3-4.21-1.3-3.15.45-4.3,1.34c-1.15.9-2.02,2.13-2.6,3.71-.58,1.58-.87,3.38-.87,5.41s.29,3.87.88,5.47c.59,1.6,1.46,2.85,2.62,3.77,1.16.92,2.58,1.37,4.27,1.37Z"/>
      <path class="cls-1" d="M205.57,56.3c-3.28,0-6.11-.69-8.49-2.06-2.38-1.37-4.21-3.32-5.49-5.84s-1.92-5.49-1.92-8.92.64-6.32,1.93-8.88c1.29-2.55,3.09-4.54,5.4-5.97,2.31-1.43,5.04-2.14,8.16-2.14,2.02,0,3.92.32,5.72.97,1.8.65,3.39,1.64,4.77,2.99,1.39,1.35,2.48,3.06,3.27,5.15.79,2.08,1.19,4.56,1.19,7.43v2.36h-26.83v-5.2h19.43c-.01-1.48-.33-2.79-.96-3.95-.63-1.16-1.5-2.07-2.61-2.74s-2.41-1-3.89-1c-1.58,0-2.96.38-4.15,1.14-1.19.76-2.12,1.75-2.78,2.98-.66,1.23-1,2.58-1.01,4.04v4.54c0,1.9.35,3.53,1.04,4.89.7,1.36,1.67,2.39,2.92,3.11,1.25.72,2.71,1.08,4.39,1.08,1.12,0,2.14-.16,3.05-.48.91-.32,1.7-.79,2.36-1.42.67-.62,1.17-1.4,1.51-2.32l7.2.81c-.46,1.9-1.32,3.56-2.59,4.97-1.27,1.41-2.89,2.51-4.87,3.28-1.97.77-4.23,1.16-6.78,1.16Z"/>
      <path class="cls-1" d="M231.35,36.48v19.18h-7.71V22.93h7.37v5.56h.38c.75-1.83,1.96-3.29,3.61-4.37s3.7-1.62,6.15-1.62c2.26,0,4.23.48,5.91,1.45,1.68.97,2.99,2.37,3.92,4.2.93,1.83,1.39,4.06,1.37,6.67v20.84h-7.71v-19.65c0-2.19-.56-3.9-1.69-5.13-1.13-1.24-2.69-1.85-4.68-1.85-1.35,0-2.55.29-3.59.88-1.04.59-1.86,1.44-2.45,2.55-.59,1.11-.88,2.45-.88,4.03Z"/>
      <path class="cls-1" d="M271.5,56.3c-3.27,0-6.07-.72-8.41-2.15s-4.13-3.42-5.39-5.96c-1.26-2.54-1.89-5.46-1.89-8.77s.64-6.26,1.92-8.81c1.28-2.55,3.09-4.54,5.42-5.97,2.34-1.43,5.1-2.14,8.3-2.14,2.66,0,5.01.49,7.06,1.46,2.05.97,3.69,2.34,4.91,4.11,1.22,1.77,1.92,3.83,2.09,6.19h-7.37c-.3-1.58-1.01-2.89-2.12-3.95-1.12-1.06-2.6-1.59-4.46-1.59-1.58,0-2.96.42-4.16,1.27s-2.12,2.06-2.78,3.63c-.66,1.58-.99,3.47-.99,5.67s.33,4.14.98,5.74c.65,1.6,1.57,2.83,2.76,3.69,1.19.86,2.58,1.29,4.19,1.29,1.14,0,2.16-.22,3.06-.65.9-.43,1.66-1.06,2.27-1.88.61-.82,1.03-1.83,1.26-3h7.37c-.18,2.32-.87,4.37-2.05,6.15s-2.78,3.17-4.82,4.18c-2.03,1-4.42,1.5-7.16,1.5Z"/>
      <path class="cls-1" d="M303.36,56.3c-3.28,0-6.11-.69-8.49-2.06-2.38-1.37-4.21-3.32-5.49-5.84s-1.92-5.49-1.92-8.92.64-6.32,1.93-8.88c1.29-2.55,3.09-4.54,5.4-5.97,2.31-1.43,5.04-2.14,8.16-2.14,2.02,0,3.92.32,5.72.97,1.8.65,3.39,1.64,4.77,2.99,1.39,1.35,2.48,3.06,3.27,5.15.79,2.08,1.19,4.56,1.19,7.43v2.36h-26.83v-5.2h19.43c-.01-1.48-.33-2.79-.96-3.95-.63-1.16-1.5-2.07-2.61-2.74s-2.41-1-3.89-1c-1.58,0-2.96.38-4.15,1.14-1.19.76-2.12,1.75-2.78,2.98-.66,1.23-1,2.58-1.01,4.04v4.54c0,1.9.35,3.53,1.04,4.89.7,1.36,1.67,2.39,2.92,3.11,1.25.72,2.71,1.08,4.39,1.08,1.12,0,2.14-.16,3.05-.48.91-.32,1.7-.79,2.36-1.42.67-.62,1.17-1.4,1.51-2.32l7.2.81c-.46,1.9-1.32,3.56-2.59,4.97-1.27,1.41-2.89,2.51-4.87,3.28-1.97.77-4.23,1.16-6.78,1.16Z"/>
    </g>
  </g>
</svg>