<?xml version="1.0" encoding="UTF-8"?>
<svg id="Layer_2" data-name="Layer 2" xmlns="http://www.w3.org/2000/svg" viewBox="0 0 680.96 185">
  <defs>
    <style>
      .cls-1 {
        fill: #94abf0;
      }
    </style>
  </defs>
  <g id="Layer_1-2" data-name="Layer 1">
    <path class="cls-1" d="M0,144V0h26v144H0ZM12.4,86.2v-20.6h81v20.6H12.4ZM12.4,20.6V0h85.8v20.6H12.4ZM111.75,144V0h25.2v144h-25.2ZM188.7,146c-7.07,0-13.2-1.47-18.4-4.4-5.07-3.07-9-7.2-11.8-12.4-2.67-5.2-4-11.07-4-17.6V42h25.2v64.4c0,6.27,1.53,11,4.6,14.2,3.2,3.2,7.67,4.8,13.4,4.8,5.2,0,9.73-1.2,13.6-3.6,4-2.4,7.13-5.73,9.4-10,2.4-4.4,3.6-9.33,3.6-14.8l2.6,24.4c-3.33,7.47-8.33,13.47-15,18-6.53,4.4-14.27,6.6-23.2,6.6ZM225.1,144v-24h-.8V42h25.4v102h-24.6ZM313.62,146c-10.8,0-20.27-2.27-28.4-6.8-8-4.53-14.27-10.8-18.8-18.8-4.4-8-6.6-17.2-6.6-27.6s2.2-19.53,6.6-27.4c4.53-8,10.8-14.2,18.8-18.6,8-4.53,17.33-6.8,28-6.8s18.93,2.13,26.4,6.4c7.47,4.13,13.27,10,17.4,17.6,4.13,7.6,6.2,16.47,6.2,26.6,0,1.87-.07,3.6-.2,5.2-.13,1.6-.33,3.2-.6,4.8h-87v-17.6h67.6l-5.2,4.8c0-9.6-2.2-16.8-6.6-21.6-4.4-4.8-10.53-7.2-18.4-7.2-8.53,0-15.33,2.93-20.4,8.8-4.93,5.87-7.4,14.33-7.4,25.4s2.47,19.33,7.4,25.2c5.07,5.73,12.2,8.6,21.4,8.6,5.33,0,10-1,14-3s6.93-5.07,8.8-9.2h23.8c-3.33,9.6-9,17.2-17,22.8-7.87,5.6-17.8,8.4-29.8,8.4ZM374.08,144V42h24.6v24h.6v78h-25.2ZM445.68,144v-64.4c0-6.27-1.6-11-4.8-14.2-3.2-3.2-7.87-4.8-14-4.8-5.33,0-10.13,1.2-14.4,3.6-4.13,2.4-7.4,5.73-9.8,10-2.27,4.27-3.4,9.2-3.4,14.8l-2.6-24.4c3.47-7.47,8.53-13.4,15.2-17.8,6.67-4.53,14.67-6.8,24-6.8,11.07,0,19.67,3.13,25.8,9.4,6.27,6.27,9.4,14.6,9.4,25v69.6h-25.4ZM532.74,146c-10.27,0-19.33-2.27-27.2-6.8-7.73-4.53-13.87-10.8-18.4-18.8-4.4-8.13-6.6-17.33-6.6-27.6s2.2-19.33,6.6-27.2c4.53-8,10.67-14.27,18.4-18.8,7.87-4.53,16.93-6.8,27.2-6.8,8.4,0,16,1.6,22.8,4.8,6.8,3.07,12.4,7.47,16.8,13.2,4.4,5.6,7.2,12.13,8.4,19.6h-24.2c-1.47-5.47-4.27-9.73-8.4-12.8-4.13-3.07-9.13-4.6-15-4.6-5.47,0-10.2,1.33-14.2,4-3.87,2.67-6.87,6.47-9,11.4-2.13,4.93-3.2,10.67-3.2,17.2s1.07,12.47,3.2,17.4c2.13,4.93,5.2,8.8,9.2,11.6,4,2.67,8.67,4,14,4,5.87,0,10.87-1.53,15-4.6,4.13-3.07,6.93-7.33,8.4-12.8h24.2c-1.2,7.47-4.07,14.07-8.6,19.8-4.4,5.6-10,10-16.8,13.2-6.67,3.07-14.2,4.6-22.6,4.6ZM594.36,185l26.4-59.2,4.6-7.6,28.8-76.2h26.8l-61,143h-25.6ZM616.96,143l-41.4-101h27.4l34.6,91.6-20.6,9.4Z"/>
  </g>
</svg>