<?xml version="1.0" encoding="UTF-8"?>
<svg id="Layer_2" data-name="Layer 2" xmlns="http://www.w3.org/2000/svg" viewBox="0 0 163.89 20">
  <defs>
    <style>
      .cls-1 {
        fill-rule: evenodd;
      }

      .cls-1, .cls-2 {
        fill: #94abf0;
      }
    </style>
  </defs>
  <g id="Layer_1-2" data-name="Layer 1">
    <path class="cls-2" d="M20.9.12c.17-.09.63-.16,1.02-.09.28.05.45.09.68.26.27.2.51.7.51.7.02,0,.52-.14.85-.18.49-.06.78-.03,1.28,0,.6.03.95.03,1.53.18.55.14.85.27,1.36.53.56.28.86.5,1.36.88.56.43,1.34,1.21,1.36,1.23l-.85,4.05-.85-.12-.08-1.82s-.59,0-.93.09c-.39.1-.94.35-.94.35-.02.01-.72.4-1.1.7-.33.26-.76.78-.77.79l.77.62,1.1,1.06.77,1.23v1.32l-3.91-1.32v2.73l-.42,1.94-.76,1.67-1.02,1.32,1.36.26.85.44.51,1.06-7.4-.09-1.45-.35-1.53-.7-1.27-.97-1.02-1.14-.68-1.23c-.17-.67-.51-2.09-.51-2.38,0-.35.17-2.46.34-3.08.14-.49,1.08-2.08,1.53-2.82l1.19-1.41,1.53-1.41,1.87-1.41,2.63-1.32s.1-.27.17-.44c.1-.24.11-.4.25-.62.19-.28.51-.44.68-.53h0Z"/>
    <path class="cls-2" d="M3.97,1.92c1.56,0,3.51,1.26,3.51,3.59,0,2.33-.39,3.3.97,7.28,1.09,3.19,4.55,5.92,6.14,6.89-4.38,0-7.99-1.84-9.64-3.11-2.54-1.94-3.16-3.14-4.09-5.73C.08,8.7-.22,6.97.17,5.02c.39-1.94,2.24-3.11,3.8-3.11Z"/>
    <path class="cls-1" d="M57.77,6.03c2.9,0,4.94,1.61,4.94,4.06,0,1.71-.1,3.56-.1,5.04,0,1.23.14,1.9.67,1.9.12,0,.26-.02.4-.02.31,0,.47.21.47.47,0,.17-.05.33-.17.5-.38.57-1.19.97-2.04.97-.9,0-1.85-.52-2.09-1.92,0-.02-.09-.02-.09-.02-.9,1.33-2.45,1.95-3.9,1.95-1.92,0-3.73-1.12-3.73-3.11,0-1.02.52-2.09,1.59-2.76,1.21-.76,2.78-1.09,3.97-1.64,1.31-.62,1.9-1.31,1.9-2.21,0-.69-.38-1.35-1.24-1.59-.19-.05-.38-.07-.59-.07-.57,0-1.19.19-1.73.64-.76.64-1.09,1.4-1.43,1.78-.19.24-.38.33-.74.33-.62,0-.78-.55-.78-1.33,0-.62.12-1.4.43-1.78.33-.43,1.05-.74,1.88-.93.69-.17,1.59-.26,2.38-.26ZM59.53,12.16s-.07.02-.07.02c-.78.57-2.09.9-3.09,1.59-.76.52-1.05,1.19-1.05,1.78,0,1,.74,1.59,1.66,1.59.83,0,1.73-.47,2.21-1.42.38-.81.4-1.66.4-3.02v-.48s-.02-.07-.07-.07Z"/>
    <path class="cls-2" d="M122.96,6.03c.97,0,2.38.21,3.02.9.38.38.47,1.05.47,1.59,0,.4-.02.71-.07.93-.1.45-.31.67-.78.67-.28,0-.45-.14-.64-.4-.19-.26-.5-.88-.85-1.31-.43-.5-1-.88-1.83-.88-1.83,0-2.99,1.83-3,4.18,0,.86.14,1.95.43,2.64.88,2.19,2.42,2.54,3.47,2.54,1.09,0,2-.57,2.54-.97.26-.19.45-.31.64-.31.26,0,.47.21.47.48,0,.21-.1.43-.24.64-.95,1.4-2.73,2.23-4.73,2.23-2.19,0-4.37-1.07-5.25-3.59-.24-.67-.36-1.43-.36-2.21,0-2.35,1.09-4.94,3.44-6.3.93-.55,2.04-.83,3.26-.83Z"/>
    <path class="cls-2" d="M139.5,6.03c.31,0,.57.17.57.71v7.72c0,.86.05,1.38.21,1.73.14.31.4.5.83.67.29.12.64.21.64.55,0,.31-.19.5-.71.62-1.02.24-2.04.55-2.78.83-.12.05-.29.1-.48.1-.33,0-.62-.17-.62-.71v-1.36s-.02-.09-.07-.09c-.02,0-.05,0-.1.07-.93,1.38-2.35,2.09-3.9,2.09-1.24,0-2.42-.5-3.16-1.52-.59-.83-.78-1.9-.78-3.25v-3.66c0-.86,0-1.35-.19-1.73-.17-.33-.43-.5-.83-.64-.26-.09-.67-.24-.67-.57,0-.31.19-.48.74-.59,1-.24,1.9-.5,2.71-.81.19-.07.4-.14.59-.14.31,0,.57.17.57.71v7.41c0,1.69.83,2.54,2.21,2.54.59,0,1.26-.19,1.76-.69.81-.81,1.12-2.19,1.12-5.2,0-1.07-.02-1.64-.21-2.02-.14-.31-.43-.5-.83-.64-.26-.09-.64-.24-.64-.57,0-.31.17-.48.71-.59,1.02-.24,2-.52,2.73-.81.19-.07.38-.14.57-.14Z"/>
    <path class="cls-2" d="M96.84,1.45c1.76,0,3.52.48,4.32,1.28.47.48.62,1.54.62,2.33,0,.71-.05,1.45-.81,1.45-.24,0-.48-.12-.69-.38-.43-.55-.88-1.33-1.64-2.04-.59-.57-1.38-1.04-2.4-1.04-1.5,0-2.64,1.02-2.64,2.3,0,.86.52,1.73,1.76,2.28,2.16.95,4.49,1.24,5.99,2.85.78.86,1.17,1.9,1.17,2.97,0,.74-.17,1.45-.5,2.12-1.07,2.19-3.3,3.37-6.3,3.37-2.26,0-4.44-.67-5.2-1.88-.4-.64-.38-1.35-.43-1.9-.02-.38-.07-.74-.07-1,0-.64.36-.93.76-.93.31,0,.52.14.74.45.21.31.71,1.09,1.26,1.69.9,1,2.09,1.9,3.66,1.9,1.78,0,3.14-1.12,3.14-2.71,0-.81-.38-1.64-1.24-2.18-1.52-.97-3.4-1.14-5.25-2.14-1.57-.83-2.4-2.14-2.4-3.71,0-2.45,2.04-4.42,4.44-4.92.55-.12,1.12-.17,1.71-.17Z"/>
    <path class="cls-1" d="M109.97,6.03c1.24,0,2.42.38,3.35,1.14,1.26,1.05,1.74,2.47,1.74,3.49s-.31,1.64-1.95,1.64h-6.06c-.19,0-.29.1-.29.26,0,.38.05,1.62.83,2.71.81,1.12,1.95,1.52,3.09,1.52,2.21,0,2.99-1.21,3.63-1.21.33,0,.5.26.5.5,0,.5-.71,1.28-1.52,1.81-1.02.66-2.35,1.04-3.68,1.04-2.23,0-4.47-1.05-5.44-3.59-.29-.78-.45-1.64-.45-2.49,0-2.38,1.14-4.82,3.44-6.11.86-.48,1.83-.71,2.8-.71ZM109.71,7.5c-2.21,0-2.92,2.54-2.92,3.09,0,.19.05.24.24.24h3.3c1.19,0,1.76-.29,1.76-1.16,0-1-.83-2.16-2.38-2.16Z"/>
    <path class="cls-1" d="M158.81,6.03c1.24,0,2.42.38,3.35,1.14,1.26,1.05,1.74,2.47,1.74,3.49s-.31,1.64-1.95,1.64h-6.06c-.19,0-.28.1-.28.26,0,.38.05,1.62.83,2.71.81,1.12,1.95,1.52,3.09,1.52,2.21,0,2.99-1.21,3.63-1.21.33,0,.5.26.5.5,0,.5-.71,1.28-1.52,1.81-1.02.67-2.35,1.04-3.68,1.04-2.23,0-4.46-1.05-5.44-3.59-.29-.78-.45-1.64-.45-2.49,0-2.38,1.14-4.82,3.44-6.11.85-.47,1.83-.71,2.8-.71ZM158.55,7.5c-2.21,0-2.92,2.54-2.92,3.09,0,.19.05.24.24.24h3.3c1.19,0,1.76-.29,1.76-1.16,0-1-.83-2.16-2.38-2.16Z"/>
    <path class="cls-1" d="M40.43,1.73c4.16,0,6.22.52,7.96,1.54,2.38,1.43,3.59,4.02,3.59,6.75,0,4.3-2.8,8.67-10.03,8.67h-5.51c-.47,0-.83-.17-.83-.52,0-.31.24-.45.52-.62.4-.24.67-.52.81-.85.14-.33.26-.81.26-2.45V5.08c0-1.21,0-1.73-.67-2.14-.38-.24-.78-.31-.78-.71,0-.28.24-.5.71-.5h3.97ZM40.96,3.3c-.47,0-.59.17-.59.57v10.62c0,1.47,0,2.02.36,2.3.26.21.74.26,1.31.26,1.97,0,3.75-.52,4.94-1.85,1.12-1.24,1.59-3.07,1.59-4.99,0-2-.5-4.85-3.02-6.18-1.16-.62-2.49-.74-4.58-.74Z"/>
    <path class="cls-2" d="M80.88,6.03c1.28,0,2.47.57,3.21,1.62.52.76.74,1.73.74,3.18v3.37c0,1.64.12,2.16.28,2.52.17.36.48.62.81.83.26.17.5.31.5.62,0,.36-.36.52-.78.52h-4.54c-.45,0-.78-.17-.78-.52,0-.28.24-.45.5-.62.36-.21.64-.48.81-.83.17-.36.29-.88.29-2.52v-3.33c0-1.62-.78-2.59-2.19-2.59-.67,0-1.33.24-1.78.71-.83.86-.88,2.19-.88,5.2,0,1.73.09,2.3.21,2.61.12.31.31.52.59.71.24.17.52.31.52.64,0,.36-.36.52-.78.52h-3.99c-.45,0-.78-.17-.78-.52,0-.33.26-.45.52-.64.24-.17.48-.38.59-.71.12-.31.19-.88.19-2.61v-3.16c0-1.69-.62-2.76-2.14-2.76-.57,0-1.16.19-1.64.67-.85.86-1.07,2.16-1.07,5.25,0,1.64.12,2.16.29,2.52.17.36.48.62.81.83.31.19.5.31.5.62,0,.36-.36.52-.78.52h-4.54c-.43,0-.78-.17-.78-.52,0-.31.21-.45.5-.62.36-.21.64-.48.81-.83.17-.36.28-.86.28-2.52v-3.66c0-.86,0-1.38-.19-1.76-.17-.31-.43-.5-.83-.64-.28-.09-.66-.21-.66-.55,0-.31.17-.5.74-.62.97-.21,1.97-.5,2.71-.81.28-.12.43-.14.59-.14.28,0,.57.17.57.71v1.33c0,.07.02.12.07.12.02,0,.05,0,.09-.07.88-1.31,2.26-2.09,3.87-2.09,1.88,0,3.02,1.09,3.47,2.09.02.05.05.09.09.09.05,0,.07-.02.12-.09.88-1.31,2.26-2.09,3.87-2.09Z"/>
    <path class="cls-2" d="M150.52,6.03c.57,0,1,.19,1.28.5.36.38.47.97.47,1.45,0,.74-.33,1.26-.95,1.26-.31,0-.57-.12-.9-.31-.33-.19-.57-.28-.88-.28-.36,0-.71.17-1.05.5-.52.52-1.21,1.45-1.21,5.06,0,1.66.12,2.16.29,2.52.17.36.45.62.81.83.31.19.5.33.5.62,0,.36-.33.52-.78.52h-4.54c-.45,0-.78-.17-.78-.52,0-.28.21-.45.5-.62.36-.21.64-.48.81-.83.17-.36.29-.88.29-2.52v-3.68c0-.86-.05-1.38-.24-1.73-.17-.31-.38-.48-.81-.64-.26-.09-.66-.24-.66-.57,0-.31.21-.5.71-.62.93-.21,1.66-.4,2.52-.78.26-.12.4-.14.57-.14.36,0,.62.21.62.71v1.85s0,.1.05.1c.02,0,.02-.02.05-.07.52-1.14,1.88-2.59,3.35-2.59Z"/>
  </g>
</svg>