<?xml version="1.0" encoding="UTF-8"?>
<svg id="Layer_2" data-name="Layer 2" xmlns="http://www.w3.org/2000/svg" viewBox="0 0 478.52 96.5">
  <defs>
    <style>
      .cls-1 {
        fill: #94abf0;
      }

      .cls-1, .cls-2 {
        fill-rule: evenodd;
      }

      .cls-2, .cls-3 {
        fill: #2b3a60;
      }
    </style>
  </defs>
  <g id="a">
    <g>
      <g>
        <path class="cls-1" d="M126.87,51.7h35.59v-8.06h-26.73V.86h-8.86v50.84h0ZM198.11.5h-8.28l-22.37,51.2h9.15l5.23-12.27h24.04l5.16,12.27h9.44L198.11.5h0ZM202.61,31.51h-17.5l8.71-20.33,8.79,20.33h0ZM264.63,36.01L237.46.86h-8.27v50.84h8.86V15.53l27.97,36.17h7.47V.86h-8.86v35.15h0ZM331.88,44.65v-21.35h-21.64v7.77h13v9.56c-1.55,1.17-3.38,2.11-5.48,2.82-2.11.7-4.37,1.05-6.79,1.05-2.61,0-4.97-.46-7.08-1.38-2.11-.92-3.92-2.2-5.45-3.82-1.52-1.62-2.7-3.55-3.52-5.79-.82-2.23-1.24-4.66-1.24-7.27,0-2.47.42-4.81,1.27-6.98.85-2.19,2.01-4.1,3.49-5.75,1.48-1.65,3.22-2.95,5.23-3.9,2.01-.94,4.18-1.42,6.5-1.42,1.6,0,3.06.13,4.39.4,1.33.27,2.55.63,3.67,1.09,1.11.46,2.18,1.03,3.2,1.71,1.02.68,2.01,1.43,2.98,2.25l5.66-6.75c-1.31-1.11-2.65-2.09-4.03-2.94s-2.85-1.56-4.39-2.14c-1.55-.58-3.23-1.03-5.05-1.34-1.82-.31-3.84-.47-6.06-.47-3.82,0-7.35.7-10.57,2.11-3.22,1.4-5.99,3.3-8.32,5.7-2.32,2.4-4.13,5.19-5.41,8.39-1.28,3.2-1.92,6.58-1.92,10.17s.63,7.19,1.89,10.39,3.04,5.97,5.34,8.32,5.07,4.19,8.32,5.52c3.24,1.33,6.85,2,10.82,2,2.23,0,4.36-.21,6.39-.62,2.03-.41,3.93-.98,5.7-1.71,1.77-.73,3.41-1.57,4.94-2.54s2.92-1.98,4.18-3.05h0l-.02-.03ZM369.79.5h-8.28l-22.37,51.2h9.15l5.23-12.27h24.04l5.16,12.27h9.44L369.79.5h0ZM374.29,31.51h-17.5l8.71-20.33,8.79,20.33h0ZM444.01,51.7l-13.73-19.25c1.79-.48,3.43-1.17,4.9-2.07,1.48-.9,2.75-1.98,3.81-3.27,1.07-1.28,1.9-2.76,2.51-4.43.61-1.67.91-3.57.91-5.7,0-2.47-.44-4.71-1.31-6.72s-2.12-3.7-3.74-5.08c-1.62-1.38-3.61-2.45-5.95-3.2-2.35-.75-4.97-1.13-7.88-1.13h-22.66v50.85h8.86v-17.72h11.22l12.53,17.72h10.53ZM433.33,17.46c0,2.63-.94,4.72-2.84,6.27-1.89,1.56-4.44,2.34-7.65,2.34h-13.11V8.92h13.04c3.35,0,5.96.71,7.8,2.15,1.85,1.43,2.77,3.56,2.77,6.38h-.01Z"/>
        <path class="cls-2" d="M144.54,84.53v11.52h2.89v-25.61h-2.89v11.38h-14.78v-11.38h-2.89v25.61h2.89v-11.52s14.78,0,14.78,0ZM196.98,83.21c0-1.78-.31-3.47-.93-5.07s-1.51-3-2.65-4.21c-1.15-1.21-2.52-2.16-4.12-2.87-1.6-.71-3.37-1.06-5.32-1.06s-3.73.36-5.34,1.08-2.99,1.69-4.13,2.91c-1.15,1.22-2.04,2.63-2.67,4.23-.63,1.6-.95,3.29-.95,5.07s.31,3.47.93,5.07,1.51,3,2.65,4.21c1.15,1.21,2.52,2.16,4.12,2.87,1.6.71,3.37,1.06,5.32,1.06s3.73-.36,5.34-1.08,2.99-1.69,4.13-2.91c1.15-1.22,2.04-2.63,2.67-4.23.63-1.6.95-3.29.95-5.07h0ZM193.98,83.28c0,1.46-.25,2.84-.75,4.12-.5,1.28-1.19,2.4-2.07,3.35s-1.93,1.7-3.16,2.25c-1.23.55-2.58.82-4.04.82s-2.81-.28-4.04-.84-2.3-1.32-3.2-2.27-1.6-2.07-2.1-3.37c-.5-1.29-.75-2.67-.75-4.13s.25-2.84.75-4.12c.5-1.28,1.19-2.4,2.07-3.35s1.93-1.7,3.16-2.25c1.23-.55,2.58-.82,4.04-.82s2.81.28,4.04.84,2.3,1.32,3.2,2.27,1.6,2.07,2.1,3.37c.5,1.29.75,2.67.75,4.13h0ZM220.41,96.05h17.3v-2.67h-14.41v-22.94h-2.89v25.61h0ZM282.88,83.21c0-1.8-.33-3.49-.99-5.05-.66-1.56-1.59-2.91-2.8-4.06-1.21-1.15-2.65-2.04-4.32-2.69s-3.51-.97-5.51-.97h-8.89v25.61h8.89c2,0,3.84-.33,5.51-.99,1.67-.66,3.11-1.56,4.32-2.71,1.21-1.15,2.14-2.51,2.8-4.08.66-1.57.99-3.26.99-5.07h0ZM279.88,83.28c0,1.44-.25,2.77-.75,3.99s-1.21,2.29-2.12,3.2c-.91.91-2.03,1.63-3.35,2.14s-2.78.77-4.39.77h-6v-20.27h6c1.61,0,3.07.26,4.39.79,1.32.52,2.43,1.24,3.35,2.16.91.91,1.62,1.99,2.12,3.24.5,1.24.75,2.57.75,3.99h0ZM306.56,70.44v25.61h2.89v-25.61h-2.89ZM353.11,90.96l-16.13-20.52h-2.71v25.61h2.82v-21l16.54,21h2.31v-25.61h-2.82v20.52h-.01ZM402.66,92.58v-10.18h-10.57v2.56h7.79v6.39c-.88.71-1.96,1.32-3.26,1.82-1.29.51-2.67.76-4.13.76-1.56,0-2.96-.27-4.21-.8-1.24-.54-2.3-1.29-3.18-2.24s-1.56-2.08-2.03-3.39c-.48-1.31-.71-2.73-.71-4.27,0-1.44.24-2.8.73-4.08.49-1.29,1.16-2.4,2.01-3.35s1.88-1.71,3.07-2.27c1.2-.56,2.5-.84,3.91-.84.9,0,1.73.07,2.47.22s1.43.35,2.05.6c.62.26,1.2.56,1.74.91.54.35,1.05.75,1.54,1.19l1.87-2.2c-.63-.54-1.29-1.02-1.96-1.44-.67-.43-1.39-.79-2.16-1.08s-1.6-.51-2.49-.66c-.89-.15-1.87-.22-2.95-.22-1.93,0-3.68.36-5.25,1.08s-2.92,1.69-4.04,2.91-1.99,2.63-2.62,4.24c-.62,1.61-.93,3.29-.93,5.05s.3,3.55.9,5.16,1.46,3.01,2.6,4.21c1.13,1.2,2.5,2.13,4.1,2.82,1.6.68,3.41,1.02,5.43,1.02,2.17,0,4.13-.38,5.87-1.15,1.74-.76,3.21-1.68,4.41-2.75h0v-.02ZM428.72,76.81c0-.59.13-1.13.38-1.65.26-.51.62-.96,1.1-1.32.48-.37,1.05-.66,1.72-.88.67-.22,1.42-.33,2.25-.33,1.32,0,2.58.22,3.79.66,1.21.44,2.41,1.15,3.6,2.12l1.68-2.23c-1.32-1.04-2.68-1.82-4.08-2.33-1.4-.52-3.04-.77-4.92-.77-1.22,0-2.34.18-3.37.53-1.02.35-1.91.84-2.67,1.47-.76.62-1.34,1.36-1.76,2.21-.41.85-.62,1.8-.62,2.82s.17,2,.51,2.78c.34.79.87,1.47,1.58,2.06s1.6,1.09,2.7,1.5c1.09.42,2.37.79,3.83,1.1,1.35.29,2.45.6,3.32.91.87.32,1.54.67,2.03,1.06s.84.82,1.03,1.3c.2.48.29,1.03.29,1.64,0,1.32-.52,2.38-1.55,3.19-1.04.81-2.42,1.21-4.15,1.21s-3.35-.3-4.72-.9-2.72-1.51-4.06-2.73l-1.79,2.12c1.54,1.38,3.15,2.41,4.85,3.07,1.69.66,3.57.99,5.62.99,1.27,0,2.44-.17,3.51-.51,1.07-.34,1.99-.83,2.75-1.47.76-.63,1.36-1.4,1.79-2.3.43-.9.65-1.91.65-3.01,0-1.98-.68-3.53-2.03-4.65s-3.46-2.01-6.31-2.64c-1.41-.29-2.57-.6-3.48-.93-.9-.33-1.61-.69-2.12-1.1-.51-.4-.87-.85-1.06-1.34-.2-.49-.29-1.04-.29-1.65h0Z"/>
      </g>
      <g>
        <path class="cls-2" d="M37.91,38.77h18.94v-17.29c10.95,3.97,18.96,14.58,18.96,26.75v47.38h18.96v-47.37c0-22.71-16.42-41.96-37.91-46.41-3.06-.63-6.23-.97-9.47-.97h-9.47v37.91h0Z"/>
        <path class="cls-1" d="M37.91,74.99c-10.95-3.97-18.95-14.58-18.95-26.75V.86H0v47.38c0,22.71,16.42,41.96,37.91,46.41,3.06.63,6.23.97,9.47.97h9.47v-37.91h-18.94v17.29h0Z"/>
      </g>
    </g>
    <g>
      <path class="cls-3" d="M458.66,3.82h-3.91v-1.41h9.53v1.41h-3.93v11.46h-1.68V3.82h-.01Z"/>
      <path class="cls-3" d="M476.55,9.62c-.1-1.79-.21-3.95-.19-5.56h-.06c-.44,1.51-.97,3.11-1.62,4.89l-2.27,6.24h-1.26l-2.08-6.13c-.61-1.81-1.13-3.48-1.49-5h-.04c-.04,1.6-.13,3.76-.25,5.69l-.34,5.52h-1.58l.9-12.87h2.12l2.2,6.22c.54,1.58.97,3,1.3,4.33h.06c.32-1.3.78-2.71,1.36-4.33l2.29-6.22h2.12l.8,12.87h-1.62l-.32-5.65h-.03Z"/>
    </g>
  </g>
</svg>