<?xml version="1.0" encoding="UTF-8"?>
<svg id="Layer_2" data-name="Layer 2" xmlns="http://www.w3.org/2000/svg" viewBox="0 0 724.12 71.74">
  <defs>
    <style>
      .cls-1 {
        fill: #94abf0;
      }
    </style>
  </defs>
  <g id="Layer_1-2" data-name="Layer 1">
    <g>
      <path class="cls-1" d="M724.12,2.5v1.69l-32.14,58.7c-4.08,7.45-11.65,10.43-19.98,8.06l1.41-6.25c11.4,4.44,14.87-8.49,18.86-16.26l-11.9-45.4c2.59-.47,5.46-.54,8.14-.15l8.9,36.69,18.89-36.79,7.81-.29Z"/>
      <path class="cls-1" d="M212.35,24.83c.3,15.88-11.23,26.16-26.24,26.1s-26.43-11.21-25.85-26.59C160.8,9.79,171.6.06,186.12,0c14.47-.06,25.93,9.53,26.22,24.83ZM201.08,23.81c-.78-9.35-8.14-14.49-16.42-13.75-7.7.69-13.18,7.05-13.22,15.28-.04,9.23,6.55,15.67,15.22,15.49s15.23-7.12,14.41-17.02Z"/>
      <path class="cls-1" d="M326.84,23.92c6.95,2.26,10.19,6.74,10.02,12.99-.46,16.55-26.09,12.45-37.77,12.6l.02-48.03c10.88.75,33.13-3.93,35.28,9.36,1.01,6.24-1.36,11.22-7.54,13.08ZM321.5,20.14c1.97-1.29,2.48-3.83,2.49-5.13s-2.21-4.05-3.56-4.12l-10.46-.55-.09,10.04,11.62-.24ZM322.46,40.02c1.67-.07,3.87-3.62,3.72-5.16-.7-6.76-11.43-4.98-16.4-5.06l.18,10.74,12.5-.52Z"/>
      <path class="cls-1" d="M619.92,62.43l5.57-5.11c4.05,5.79,9.66,8.17,16.67,8.27,15.19.22,20.36-12.27,20.37-24.93-7.9,7.76-18.99,9.92-28.61,4.95-5.72-2.96-9.53-8.6-9.99-15.26-1-14.55,9.74-27.48,24.05-28.97,7.85-.82,14.15,1.85,18.82,7.85l1.48-6.45c1.26-.07,4.36.02,6.42.22l-6.72,46.96c-1.89,13.19-12.88,21.52-25.82,21.6-8.6.05-16.07-1.57-22.26-9.14ZM642.86,41.83c7.35,1.32,13.93-2.33,17.78-6.69,4.51-5.12,5.91-12.06,3.91-18.5s-8.64-10.01-15.54-9.17c-9.24,1.12-16.48,8.65-17.66,17.88-.97,7.6,3.49,15.05,11.51,16.49Z"/>
      <path class="cls-1" d="M44.21,26.95c-.67,12.02-9.64,20.67-21.49,22.09-7.12.85-15.02.44-22.71.4V1.31c8.2-.13,16.46-.31,24.06.74,12.74,1.76,20.89,11.53,20.14,24.9ZM25.2,37.98c5.71-2.13,7.64-7.53,7.82-12.15s-1.61-9.48-6.25-12.09-10.01-2.65-16.19-2.34l-.05,28.07c4.78.29,9.96.26,14.67-1.5Z"/>
      <polygon class="cls-1" points="406.88 29.98 386.54 30.02 386.34 39.6 409.29 39.73 409.2 49.53 375.61 49.49 375.52 1.25 408.21 1.24 408.23 11.29 386.51 11.31 386.47 19.88 407.05 20.06 406.88 29.98"/>
      <polygon class="cls-1" points="80.99 29.96 60.46 30.02 60.22 39.63 83.27 39.75 83.23 49.54 49.6 49.52 49.55 1.29 82.14 1.25 82.17 11.26 60.44 11.29 60.26 19.89 80.98 20.16 80.99 29.96"/>
      <path class="cls-1" d="M280.18,39.47l-18.31-.1-4.16,10.04-11.71-.17L266.45,1.52c2.99-.21,6.26-.19,9.22.14l20.5,47.36-11.91.53-4.08-10.09ZM276.55,30.24l-5.86-14.02-5.45,13.79,11.31.23Z"/>
      <path class="cls-1" d="M114.49,30.31c-4.71.52-8.83.63-13.8.79l-.25,18.54-10.68-.13-.03-47.97,22.06.02c9.11,0,15.04,6.94,14.27,15.8-.55,6.42-4.03,12.12-11.58,12.95ZM110.22,21.45c1.63-.04,4.13-2.58,4.54-4.01s-.49-4.95-1.95-5.54c-4.01-1.63-7.89-1.62-12.21-1.24l.12,11,9.5-.2Z"/>
      <path class="cls-1" d="M581.35,35.74l4.22,4.03c-6.43,7.41-15.61,10.88-25.27,9.28s-16.25-9.89-16.17-19.82c.13-15.19,11.67-27.9,26.87-27.93,7.63-.02,14.37,3.69,17.25,10.67,1.94,4.71,1.86,9.89.8,15.26l-37.9.11c-.18,4.93,1.39,9.23,4.42,12.16,6.85,6.65,18.06,4.47,25.78-3.76ZM582.74,21.67c.84-8.28-3.35-13.26-9.93-14.12-9.34-1.22-18.85,4.68-20.57,14.21l30.5-.09Z"/>
      <path class="cls-1" d="M460.12,42.87c7.52,1.73,13.99-1.56,18.97-6.87,1.43.14,3.84,2.5,4.21,4.21-7.52,8.51-19.86,11.93-30.22,7.07-8.48-3.98-11.86-13.21-10.43-22.2,2.23-14.07,13.99-24.78,28.32-23.71,7.9.59,14.36,5.32,16.28,12.97,1.03,4.11.82,8.62-.03,12.9l-37.8.12c-.54,7.22,3.4,13.83,10.69,15.51ZM480.42,21.81c1.96-6.92-2.29-13.51-9.55-14.31-9.2-1.01-18.25,4.51-20.66,14.18l30.21.13Z"/>
      <polygon class="cls-1" points="254.84 1.64 237.08 29.33 237 49.41 226.27 49.41 226.14 28.76 208.38 1.48 221.49 1.17 231.66 18.91 242.47 1.25 254.84 1.64"/>
      <path class="cls-1" d="M519.45,7.39c-8.04.26-14.62,6.68-15.81,14.38l-3.94,25.46c-.62,1.56-5.42,1.39-6.38-.05l6.01-44.47,6.19.17.32,5.44c7.43-6.83,16.66-9.44,25.42-4.73,3.41,1.83,5.97,7.42,5.4,11.62l-4.31,32.03c-1.18,1.38-5.22,1.36-6.54.29l3.82-29.29c.27-2.06-.93-6.07-2.04-7.8s-4.69-3.17-8.15-3.06Z"/>
      <path class="cls-1" d="M372.08,39.68l-.11,9.9-30.08-.07-.06-47.76c3.16-.44,6.45-.51,10.67-.37l.13,38.27,19.45.04Z"/>
      <path class="cls-1" d="M160.11,39.7l-.06,9.8-30.28.04-.06-47.84c3.24-.34,6.55-.41,10.75-.33l.15,38.28,19.5.06Z"/>
      <path class="cls-1" d="M601.83,46.94c-.25,1.58-5.49,1.44-6.37.36l5.96-44.71,6.15-.3-.18,6.97c5.18-6.38,11.96-9.7,20.01-7.22l-2.54,6.07c-8.79-1.64-17.52,3.91-18.95,12.94l-4.09,25.89Z"/>
      <circle class="cls-1" cx="425.58" cy="40.17" r="8.48"/>
    </g>
  </g>
</svg>