<?xml version="1.0" encoding="UTF-8"?>
<svg id="Layer_2" data-name="Layer 2" xmlns="http://www.w3.org/2000/svg" viewBox="0 0 886.37 613.65">
  <defs>
    <style>
      .cls-1 {
        fill: #3d359e;
      }

      .cls-2 {
        fill: #1f1b50;
      }
    </style>
  </defs>
  <g id="Layer_1-2" data-name="Layer 1">
    <g id="p9zNSN.tif">
      <path class="cls-1" d="M843.8,88.97c8.5,15.88,18.77,38.48,36.61,45.51,1.19.47,5.98,1.23,5.96,2l-36.87,38.23c-1.01,5.63-.24,11.9,2.19,17.06,2.86,6.1,11.04,12.08,13.31,17.26,2.2,5.02-4.22,11.14-7.53,14.86-9.63,10.85-21.15,19.39-29.47,31.69-16.07,23.77-24.81,68.91-12.66,95.5,1.29,2.82,5.73,8.88,5.09,11.22-20.43,33.53-42.93,65.85-68.86,95.36-.04,18.44,6.8,35.91,15.94,51.59,13.34,22.88,40.37,47.15,16.83,74.12-27.27-19.1-48.58-46.7-59.58-78.24-2.8-.69-5.58.52-8.21.61-22.48.81-44.83-3.14-66.83,2.97-17.87,4.96-32.47,16.24-44.36,30.15-19.85-2.72-41.59-6.95-61.34-1.57-31.6,8.61-46.77,47.02-52.54,76.08-24.42,2.25-42.31-9.63-57.78-26.91-13.05-14.57-29.55-47.74-52.56-41.89-10.16,2.58-15.44,13.93-24.05,2.18-5.63-7.68-8.02-16.83-14.79-24.42-11.96-13.4-23.19-13.19-39.92-13.31-52.17-.39-112.33-25.96-156.71-52.62-66.89-40.18-68.55-115.81-82.03-184.91,23.51-52.23,34.3-108.98,47.03-164.58,13.94,3.75,27.71,8.17,41.71,11.76,102.61,26.35,210.16,29.7,315.52,26.75,12.16-.34,17.64,4.49,28.6,8.02s22.16,5.62,33.34,7.21c8.89,1.26,22.18,1.14,30.32,3.58,3.31,1,12.91,8.38,17.33,10.59,24.98,12.47,53.55,15.7,81.08,17.96,25.67,18.53,25.33,53.03,26.05,81.62,13.01-13.08,36.99-24.66,39.5-44.92.27-2.21-.48-8.37.36-9.61,1.16-1.71,34.31-12.06,38.92-13.94l-5.71-27.27c16.06-5.96,32.28-11.47,47.83-18.68,2.62-1.22,20.11-9.55,20.73-10.54,1.47-2.33-12.73-44.47-13.04-50.75l30.58-9.72Z"/>
    </g>
    <g id="tbWjAt.tif">
      <g>
        <path class="cls-2" d="M373.67,226.18c29.96,25.83,66.89,50.4,103.03,66.72,11.04,4.98,34.17,14.88,45.78,13.97,1.69-.13,6.44-1.99,8.37-2.67,45.87-16.18,104.33-73.09,129.84-114.16,7.41-11.93,13.46-25.04,15.75-39,5.4.69,8.68-4.4,13.13-6.55,2.76,3.47,4.88,6.95,9.03,9,4.39,2.18,20.91,3.34,26.51,3.51,1.77.05,4.34-1.12,4.9-.97s1.05,1.02,1.73,1.31c2.6,1.11,4.88.94,6.07,3.93.81,2.04.31,4.02-1.42,5.48-1.6,1.36-4.19.68-4.54,2.46-.17,7.33.23,14.7.03,22.03-.03,1.06-.49,2.04-.52,2.98-1.11,41.03-3.2,82.09-6,123-.51,7.52,1.57,20.31-9,21.25.15-8.41-.19-16.86-.03-25.27.04-1.9,1.17-3.87-.28-5.76l-24.7-2.97c.08,5.17-.62,12.42-4.83,15.93-1.18.98-6.34,4.07-7.1,1.75l.42-149.18c-.71.24-1.28.96-1.69,1.56-1.58,2.31-14.04,25.23-14.28,26.72.02,4.49-.13,9-.05,13.49.5,29.29,2.1,61.4-.49,90.47-.55,6.24-1.9,12.72-3.5,18.75-.82.02-1.02-1.72-1-2.24.15-4.82,1.24-10.17,1.5-15.01,1.39-25.76,1.25-51.72.48-77.47-.19-6.52.25-14.14-.46-20.54-.08-.76-.05-1.24-.77-1.72l-14.23,18.76-.5,44.5-.54,3.46c-.56,10.86-.79,22.75-3.1,33.4-.71,3.27-1.85,6.41-3.38,9.37l-.96-1.21c.89-4.59,1.88-9.46,2.4-14.11,1.71-15.37,1.62-31.04,1.54-46.42-.02-2.94.43-22.09-.48-22.77-.93,0-1.83,1.23-2.47,1.9-7.5,7.75-14.35,16.27-21.75,24.12-.06,6.28-.85,12.47-1.29,18.71-.41,5.73.56,12.65-2.73,17.77-.84-4.7.6-9.53.78-14.22s.57-13.13-.02-17.53c-.09-.69.28-.87-.74-.74-17.37,16.1-36.77,30.29-58.51,39.99l-18.25,6.49c1.14.21,2.24.65,3.38.87,18.34,3.56,38.5,5.04,57.24,8.26,59.09,10.15,121.34,23.76,178.99,40.01,13.33,3.76,33.91,9.06,45.9,15.1,5.86,2.95,11.29,8.79,10.48,15.77-12.34-4.35-24.7-8.87-37.39-12.35-20.78-5.71-43.89-11.07-65-15.5-1.51-.32-3.04-.71-4.6-.65l-1.23,83.03c-.25.38-.55.45-.98.46-.78.02-5.84-1.28-6.9-1.62-7.68-2.5-9.42-9.71-15.73-13.79l-9.44,9.44-16.36-3.13-1.11-.88,2.52-83.27-1.12-1.63c-5.54-.95-11-2.41-16.51-3.49-51.72-10.12-105.75-15.93-158.38-20.12-72.83-5.8-146.43-8.93-219.49-3.98-3.38.64-1.3,9.63-1.24,12.22.58,28.5-1.36,56.64-2.54,85-.18,4.37.22,8.78.16,13.13-1.28,2.65-3.53,1.85-5.77,2.26-1.98.37-2.91,1.49-5.34.61-2.65-.96-11.56-15.08-12.77-15.11-3.29,2.35-5.33,6.32-8.24,9.16s-8.7,7.04-12.41,8.08c-12.26,3.46-2.32-5.16.31-8.69,1.5-2.01,11.61-18.3,11.58-19.43-1.07-1.75-2.41-3.7-3.74-5.24-2.86-3.34-9.52-10.77-12.75-13.25-.5-.38-.63-.97-1.5-.74l-.48,29.77c-1.21,5.93-.89,12.49-2.13,18.37-.58,2.77-6.73,2.58-9.08,3.24l-1.05-.89c-.49-5.88.32-11.81.27-17.77-.01-1.18-.53-2.28-.54-3.46-.27-20.53-.99-40.98-1.5-61.5-.2-8.17.98-18.82.04-26.54-.06-.53.02-1.15-.49-1.51-.89-.37-1.84-.27-2.77-.22-12.14.76-27.63,3.68-39.96,5.55-19.8,3-39.68,6.62-59.17,10.83-18.22,3.93-39.09,7.74-54.97,17.53-1.77,1.09-5.02,3.16-6.7.87-1.16-1.58.38-2.88.55-4.52.51-4.78-1.81-12.16,2.81-15.19,7.12-4.67,29.04-10.16,38.07-12.43,31.86-8.04,65.4-13.17,97.92-18.08,3.17-.48,6.81-.44,9.97-1.53.82-1.16-.71-11.49-.8-13.76-2.5-61.8-7.34-123.3-11-185-.4-6.68-.08-13.27-.97-20.03-.1-.73-.07-1.27-.77-1.73l-19.28,39.76c4.93,40.68,7.7,81.55,10.04,122.49.39,6.76,2.73,15.38-.5,21.51l-2-17.51c-2.25-31.59-4.21-63.51-7.51-94.99-.8-7.59-2.1-15.18-2.73-22.77l-1.51-.5-12.78,24.23c2.68,31.67,5.61,63.31,7.01,95.04.19,4.28,2.09,17.37-.05,20.41-.41.59-.57,1-1.42.82-.87-4.54-.26-9.16-.51-13.74-1.19-21.75-3.52-43.38-5.49-65.01-.93-10.24-1.48-20.52-2.51-30.74l-1.42.83-17.57,29.47c1.25,8.77,1.74,17.65,2.5,26.44,1.6,18.6,3.65,37.28,4.49,56.01.27,5.96.94,14.84.52,20.51-.04.61-1.01,7.98-2.52,6.23-.28-7.42-1.03-14.83-1.5-22.25-1.66-26.51-3.34-53.08-6.49-79.51-.09-.76-.02-1.24-.77-1.72-10.08,13.77-19.14,28.3-30.15,41.34-.1,6.79,1.37,13.64,1.89,20.4.81,10.45,1.77,22.05,2.03,32.47.08,3.1.44,6.54-1.03,9.27-.68.13-.76-.89-.86-1.37-2.58-12.27-1.99-28.12-3.14-40.86-.42-4.61-1.57-9.51-1.49-14.26l-1.89.12c-11.06,13.2-22.88,28.16-36.65,38.59-8.08,6.12-24.24,16.79-33.46,8.55-5.81-5.19-4.28-6.1-12.36-9.64-9.71-4.27,3.04-14.15,10.23-11.24,1.15.47,2.1,2.33,2.98,2.56,2.05.52,17.62-7.36,20.39-8.94,50.27-28.81,91.61-99.35,118.51-149.49,12.68-23.62,26.56-49.42,36.06-74.44,5.43-14.28,10.14-29.08,9.92-44.58,3.69-2.54,6.88-1.28,10.49.53l46.96-.99c1.64-5.47,8.18-4.48,12.06-2.04.26,8.88-.92,18.4-.25,27.25,1.39,18.29,10.98,47.54,17.27,65.23,18.58,52.27,43.31,95.34,85.52,131.73ZM258.31,19.54c-10.04-2.48-20.41-1.82-30.7-2.05-1.31-.03-2.53-.51-3.96-.54-1.62-.04-10.01-.28-10.56.49l6.12,58.57c1.67,1.02,3.22-.04,4.9-.06,9.28-.14,17.84-.78,27.03-1.47,1.37-.1,5.41.41,6.03-.47l1.15-54.46ZM227.42,244.01l-.16,52.59c-.71,4.22-5.9,7.05-9.91,6.15-1.48-6.14-.65-12.73-.95-19.05-3.39-71.36-6.65-142.66-10.04-213.96-.44-9.28-.24-18.76-.98-28.02-.05-.58-.16-2.24-1-2.24l-17.03,42.22c4.53,70.2,9.65,140.25,12.55,210.51.16,3.83-.25,7.72-.04,11.54.08,1.52.28,4.65.52,5.98.1.57.18,1.01.82,1.17,21.24-2.1,42.56-4.44,63.86-6l.75-.75-3.67-53.19c-.58-1.16-6.13-2.49-7.64-2.86-8.68-2.1-18.2-3.2-27.08-4.09ZM300.38,292.47c-.1-1.73.15-3.51,0-5.24-4.14-46.87-3.03-94.11-6.49-141.01-.57-7.68-.3-10.16-2.78-17.72-3.88-11.79-9.24-23.7-13.6-35.4-1.92-5.15-3.75-10.38-5.37-15.62-.83.57-.71,1.37-.78,2.22-1.02,13.42.32,27.61.55,41.01.8,48.06,2.23,95.99,3.48,144.02.25,9.76.48,19.76.99,29.51.15,2.91-.29,5.88.22,8.78.51.73,3.54.54,4.55.49,6.14-.33,12.34-1.19,18.46-1.54s12.39.2,18.46-.54c.9-.11,2.95-.4,3.25-1.25-1.61-41.47-2.68-83-5.46-124.42-5.73-9.01-10.86-19.38-16.86-28.12-.3-.44.08-.93-1.11-.65l-.02,19.27c1.8,31.95,2.37,63.97,3,96,.02,1.18.52,2.28.54,3.46-.79,8.16.99,18.09-.02,26.03-.09.73-.38,1.55-1,.74ZM257.38,93.47l-36.77-2.02c-.48.77-.3,7.29-.25,8.8.24,7.95,1.17,16.01,1.54,23.96.28,5.97-.19,12,.54,17.96.08.69.46,2.77.91,3.09,10.51.22,20.81,1.66,31.16,3.34,1.03.17,2.89,1.55,3.65.4l-.77-55.52ZM223.87,158.47l2.72,70.53c.65.94,8.26.34,10.05.45,4.23.25,8.77.52,12.97,1.03,1.74.21,10.14,2.25,10.79,1.78l-2.26-66.81c-11.11-3.29-22.72-5.85-34.27-6.98ZM719.88,209.47l2.28-41.03c-.64-.92-6.08-.36-7.55-.45-1.18-.07-2.28-.5-3.46-.54-2.17-.08-16.59-.25-17.3.24l.53,38.28,25.5,3.5ZM323.38,300.97h42.25c.11,0,.98-.48,1.13-.64l-1.4-25.59-.7-41.8-18.5-19.27-2.78-2.2c-.38,5.6.73,11.17,1.02,16.73.15,2.99-.15,6.02-.02,9.02.37,8.24,2.4,19.54.49,27.51-.18.75.35.88-.98.75-2.38-19.28-2.34-38.78-4.13-58.13l-20.63-26.87,4.25,120.5ZM695.19,216.01l-.84,1.69-.26,30.81,24.32,2.75,1.22-33.28-1.98-1.02-22.46-.94ZM371.67,239.18c-.48-.42-3.91-3.65-4.29-3.21.14,5.57-.19,11.19-.02,16.77.39,13.4.71,27.11,1.5,40.5.09,1.57.43,6.95,1.52,7.48l113,3.24-10.49-3.25c-36.39-14.09-71.89-35.91-101.22-61.53ZM718.31,262.04c-.53-.85-13.59-.68-15.7-.59-1.37.06-8.75.61-9.01.99l-1.18,28.82c.09,1.81,4.34,2.52,5.95,2.97,4.71,1.3,12.79,3.6,17.39,4.14.66.08,1.42.33,1.89-.37l.65-35.96ZM248.17,338.26c3.71-4.47,7.92-9.3,11.46-13.79.42-.54,1.12-.61.26-1.26-1.67-.92-16.65,1.43-19.76,1.75-1.39.15-12.27.26-12.23,1.76l15.64,15.38c1.5.87,3.52-2.5,4.64-3.84ZM265.87,364.97l-.5-26.74-1.24-1.25-11.68,15.17c.17.83,10.72,11.74,11.65,12.35.61.4.99.62,1.77.47ZM225.63,340.48c-1.54,1.2-.28,3.08-.23,4.72.22,6.59-.25,14.63.45,21.05.08.76.05,1.24.77,1.72l10.7-15.67-11.7-11.81ZM692.38,352.47c-.16.78.09,1.15.48,1.77.62.98,6.82,8.51,7.37,8.67.64.19,1.06.09,1.64-.18,1.38-.65,5.22-5,7-6.02.21-.96-1.3-1.36-1.96-1.52-4.63-1.13-9.84-1.62-14.53-2.72ZM255.67,369.68c-3.35-3.06-6.72-6.1-10.04-9.2-5.16,5.09-8.46,12.5-16.12,14.37-1.06.26-3.38-.44-3.12.86.44,1.48,13.81,14.01,15.99,16.02,1.34,1.24,4.59,4.5,5.73,5.27.47.31.81.65,1.43.42,3.8-4.89,6.46-11.07,11.59-14.95,2.1-1.59,5.42-1.52,3.77-4.27-.7-1.17-7.67-7.09-9.23-8.52ZM713.87,361.97l-2.03.71-5.9,7.12,6.69,8.66c1.13.21.7-.49.74-1.24.34-5.09.65-10.15.5-15.26ZM688.88,365.72c-.75,2.97.56,8.91,0,12.25.93.21.97-.31,1.42-.83.63-.73,4.08-5.4,4.08-5.92l-4.5-6.24c-.21-.11-.95.58-.99.74ZM703.59,381.26c-.89-.93-3.19-4.56-4.65-3.72-2.95,4.38-6.81,8.08-10.98,11.26-.26.77-.24,7.96.02,8.82.18.61,7.59,9.71,8.22,9.81,1.39.24,3.59-5.37,4.36-6.53,2.81-4.24,6.47-8.63,11.82-9.43.83-.91-7.74-9.11-8.79-10.2ZM266.88,417.47v-19c-1.73.65-7.41,8.55-7.51,9.79-.15,1.8,5.86,7.88,7.51,9.21ZM713.87,428.97c.46-2.77-.44-5.65-.52-8.23-.12-3.96.46-8.75.04-12.54-.08-.76-.05-1.24-.77-1.72l-7.26,12.7c.06.68,5.98,8.57,6.78,9.27.63.55.84.66,1.73.52ZM685.88,427.47c1.29-1.42,5.16-6.82,5.42-8.36.22-1.35-2.66-4.69-3.68-5.13-.91-.4-1.14,1.31-1.19,1.79-.42,3.68-.39,7.97-.54,11.7Z"/>
        <path class="cls-2" d="M392.77,441.62c102.45-1.94,210.3,2.41,311.29,18.41,17.59,2.79,49.07,6.88,64.7,13.3,4.95,2.03,7.21,3.4,6.11,9.39-.65,3.52-7.15-.07-9.39-.62-31.82-7.82-65.82-12.43-98.31-16.69-96.21-12.64-193.74-17.02-291.04-13.92-78.86,2.51-157.53,10.02-234.51,27.5-2.48-.39-.74-4.37.23-5.77,3.32-4.81,16.14-7.26,21.88-8.62,71.42-16.89,155.62-21.59,229.02-22.98Z"/>
        <path class="cls-2" d="M767.88,286.22c-.63-3.75-6.15-14.61-7.88-19.12-2.18-5.7-3.96-11.6-6.25-17.25-.44-1.09-.78-2.81-1.87-3.38-.1,1.09-.45,2.12-.53,3.23-1.77,24.07,1.16,50.33-.99,74.51-.21,2.38-.99,4.63-2,6.76l-.89-.86.92-28.87c-1.32-21.37,1.4-45.44-.53-66.52-.28-3.03-1.82-7.72-2.64-10.86-3.19-12.26-7.69-24.18-9.73-36.77-.86-5.3-2.9-12.75,1.62-16.61.6.49.95,1.11,1.13,1.86,2.97,11.93,4.71,23.67,8.26,35.74,10.06,34.18,26.2,76.96,51.58,102.42,14.69,14.74,41.45,31.62,63.04,30,3.18-.24,5.64-1.63,8.68-1.96,5.46,12.81-5.47,19.49-17.19,18.44-32.48-2.93-59.99-33.06-77.67-57.83-.95-1.33-.79-3.3-3.09-3.17v10.25c0,1.42-1.15,6.8-1.67,8.34-.43,1.28-.78,2.92-2.33,2.41v-30.75Z"/>
        <path class="cls-2" d="M599.87,202.98c.04.89.25,1.06-.74,1-1.79-.11-2.71-.71-4.89-.38-1.33.2-4.17,1.36-5.24,2.21-1.88,1.5-2.91,6.28-3.96,6.62-2.26.73-3.26-2.98-5.39-3.98-4.28-2.02-7.43-.65-11.04,1.53-.64.39-1.27.4-1.23-.24.02-.23,2.79-2.89,3.25-3.24,4.33-3.21,8.64-2.07,13.18-.05,3.19-6.09,10.45-6.45,16.05-3.46Z"/>
        <path class="cls-2" d="M385.87,124.97c-.75-.09-.5-.81-1.39-1.34-6.05-3.63-5.51-.4-9.63,1.09-3.36,1.21-2.61-1.97-3.2-3.77-.47-1.44-2.69-3.06-4.14-3.36-.56-.12-5.58.2-4.14-1.11,3.35-1.11,6.66-1.74,9.75.49.97.7,2,2.78,2.57,2.95.64.18,1.97-.49,2.92-.48,3.51.02,7.25,1.43,7.25,5.53Z"/>
      </g>
    </g>
  </g>
</svg>