<?xml version="1.0" encoding="UTF-8"?>
<svg id="Layer_2" data-name="Layer 2" xmlns="http://www.w3.org/2000/svg" viewBox="0 0 886.13 597.22">
  <defs>
    <style>
      .cls-1 {
        fill: #3d359e;
      }

      .cls-2 {
        fill: #1f1b50;
      }
    </style>
  </defs>
  <g id="Layer_1-2" data-name="Layer 1">
    <g id="_8TCpsd.tif" data-name="8TCpsd.tif">
      <g>
        <path class="cls-1" d="M647.71,282.44c.67,1.15-.19,5.89.17,7.83s2.54,3.27,2.56,5.77c0,1.92-1.61,5.32-1.87,7.76-.4,3.78-.66,9.44-.75,13.31-.19,8.21,3.1,15.19,2.98,22.93-.14,9.55-10.62,25.5-14.13,34.96-2.38,6.43-1.26,10.89-4.93,17.44-1.94,3.46-5.34,6.41-7.04,9.58-1.15,2.15-1.36,4.87-2.41,6.54-1.88,3.03-9.71,6.66-12.75,8.98-6.8,5.21-7.33,12.03-11.93,17.47-3.74,4.43-6.87,5.91-8.43,12.66-.4,1.73.26,3.65-.47,5.28-.53,1.19-6.55,4.75-8.32,7.02-2.47,3.17-8.86,18.96-9.6,23-.86,4.66.96,7.94-2.82,11.88-6.11,6.37-17.87,2.1-25.94,2.82s-13.09,8.12-20.41,10.92c-1.09.42-5.22,1.1-5.4,1.31-.44.53.75,5.17-1.96,6.67s-1.76-2.06-3.49-3.57c-.86-.75-2.47-.8-3.53-1.59-.78-.59-5.92-5.04-6.09-5.41-1.18-2.56.35-3.55.94-5.74-3.41.25-5.15,4.16-8.63,3.9-1.71-.13-1.16-2.75-2.87-3.58-4.55-2.22-13.07,6.8-17.6,7.99-4.55-3.08-8.79-6.92-13.93-9.06-1.34-.56-6.67-2.32-7.87-2.42-2.22-.18-3.9,1.75-5.56,1.2-.58-.19-2.55-3.27-4.05-4.3-3-2.04-6.55-1.97-9.48-3.94l-10.28-14.71c.51-7.88,2.76-13.41-1.66-20.66-1.01-1.65-7.94-9.56-9.3-9.93-2.34-.63-7.88,3.14-11.04,1.82.3-5.03,6.29-7.28,6.45-12.46.12-4.03-3.03-9.92-5.49-13.11-1.53,2.81-3.61,13.89-5.7,15.39-1.55,1.12-4.25.38-6.29.74-2.48.43-4.8,2.52-7.5,2.4-.41-.42,1.69-7.33,1.99-7.59.9-.79,6.55,1.34,7.47-1.8.58-1.98-.08-5.16.2-7.47.39-3.2,2.24-8.03,3.87-10.83.76-1.31,3.35-3.33,3.57-4.68.4-2.52-4.9-6.48,2.08-6.61-3.22-10.48-8.92,6.1-11.8,8.98-3.43,3.43-8.91,4.3-12.48,7.97-2.8,2.88-6.52,8.13-6.44,12.15.02,1.25,1.56,4.39-.17,4.04-1.55-.31-4.43-1.14-5.76-1.92-2.69-1.56-4.09-5.7-8.08-5.02-.38-2.14,3.36-3.01,3.77-4.26.35-1.08-.99-5.37-1.53-6.6-.58-1.33-6.94-12.07-7.64-12.81-2.73-2.87-5.56-.75-7.67-3.84-.49-.71-2.26-4.8-2.25-5.42.03-1.62,2.81-2.53,2.54-3.81-1.72-2.09-4.28-.36-6.39-.33,2.99-8.12-4.9-5.55-10.37-7.21-2.4-.73-5.47-3.47-7.27-3.66-2.7-.29-3.4,1.69-5.11,1.93-3.16.44-11.81-8.35-17.28-8.92-3.43-.36-9.51,1.54-13.36,1.87-3.12.27-6.45-.24-9.57.02-13.66,1.13-27.32,13.77-42.28,15.25-3.34.33-6.84-.21-10.14.09-8.19.73-12.55,7.01-19.31,10.73-2.7,1.49-8.51,3.09-10.12,4.59-2.69,2.49-2.77,9.45-4.87,13.02-4.85,8.24-12.82,3.42-19.91,5.02-2.32.53-2.15,2.66-3.99,3.08-2.55.59-2.04-1.11-2.99-1.5-3.15-1.3-24.34,2.32-28.65,3.71-1.15.37-5.04,2.36-5.76,3.19-2,2.3-.3,4.65-2.85,6.74-2.05,1.68-3.51.86-5.46,1.58-7.59,2.79-8.78,11.9-16.57,13.47-4.03.82-17.35,1.4-21.4.87-6.16-.81-10.58-6.8-15.06-7.96-3.56-.92-6.63.91-9.26-2.88-2.37-3.42-1.47-7.84-1.63-11.76.17-1.29,5.22.91,6.32.2.29-.19,1.87-5.87,1.94-6.72.37-4.48-1.96-5.72-2.47-8.9-.61-3.85.4-8.78-.04-12.75-.91-8.25-11.21-18.32-14.82-26.73-2.59-6.03-3.28-16.24-5.73-20.48-1.16-1.99-3.92-3.62-5.3-5.57-2.7-3.81-6.81-9.42-9.2-13.17-2.27-3.56-2.65-7.81-4.47-11.51-3.88-7.88-12.81-13.31-17.92-20.44-.69-2.79,2.8.06,1.83-4.06l3.83,1.28c.3-2.4-1.72-3.4-2.51-5.48-1.27-3.35-1.28-5.47,2.74-3.38,3.33,1.73,5.49,4.96,7.14,8.2,1.16,2.29,1.01,5.84,4.15,4.16-.99-2.51-.32-5.21-.69-7.62-.59-3.9-8.63-10.42-11.11-14.46-1.02-1.67-1.36-3.54-2.4-5.27-.9-1.48-4.02-4.68-4.22-5.37-.44-1.47-.37-10.19-.09-11.98.56-3.6,3.88-6.46,3.85-11.55,0-1.08-1.48-6.75-1.94-7.58s-1.78-.05-1.99-.77c-1.23-4.27,2.72-16.06,6.76-18.82,1.6,1.54.81,10.68,1.6,11.5.11.11,3.08.12,3.19,0,.25-.26.4-5.75.8-7.19,2.27-8.08,8.27-8.05,13.58-11.99,4.49-3.34,7.95-10.4,12.44-13.77,2.17-1.64,5.32-2.4,7.41-4.73,1.54-1.71,3.28-7,3.49-.67,1.83.03,3.04-1.79,4.83-1.89,2.34-.14,4.06,1.18,7.34.31s6.99-6.11,10.28-7.62c3.22-1.48,5.79-.51,8.84-2.67,2.65-1.88,3.09-5.62,5.98-6.84,2.35-.99,3.27.57,5.32.79,1.92.2,18.19-6.33,20.94-7.72,4.93-2.51,7.63-5.34,10.32-10.14,2.24-4.01,3.48-10.15,5.79-13.39,2.05-2.88,7.05-5.46,9.22-8.68.73-1.75-2.87-.61-3.19-.95-.12-.12.1-2.59-.06-3.45-2.66-14.04-.07-12.3,7.74-21.8,2.06-2.51,2.1-6.06,6.39-6.71.18,1.8-.44,4.06.34,5.74.33.71,1.58,1.39,2.12,2.35.47.82,5.35,11.61,6.49,10.44.83-2.55.32-4.48,0-7.03,9.28.83-1.44-4.48-2.29-7s.38-3.08.87-4.98c.24-.93.02-3.25.14-3.37.18-.19,4.68-.13,5.32.02.49.12.39,1.14.87,1.25,2.23.51,5.34-.12,7.87,1.29-1.02-2.37,1.85-4.72,1.9-6.06.07-2.07-3.35-4.42-1.56-8.63,3.18-2.13,6.28-7.57,8.92-9.62,1.42-1.1,4.68-1.36,4.57-3.49-.03-.69-2.21-3.24-1.62-4.08.5-.7,5.97-2.73,7.02-4.2.87-1.22.69-3.38,1.24-4.83.94-.67,5.84,4.48,7.02,5.11-.78-1.79,2.12-5.04,1.88-6.01-.12-.49-4.64-2.67-1.91-4.57,3.31-2.29,4.33,2.9,4.83,2.9,1.45-1.67,3.09-2.87,5.42-2.53l.33,1.9c3.77-2.61,1.29-7.82,7.55-6.38.53.12.46,1.16,1.23,1.45,1.88.71,4.3.74,6.06,1.59,5.05,2.43,8.37,11.83,14.81,13,.68,2.95-2.64,4.48-1.83,7.59.54-.69,3.58-2.49,3.69-2.69.54-.93-.14-3.43.14-3.71,1.33-1.4,18.5,3.4,21.74,1.92,1.65-5.03-3.55-6.31-4.83-8.32-2.05-3.24,5.18-8.86,6.24-11.04.85-1.77.8-5.24,1.45-6.22s5.3-1.61,6.7-1.93c.61-2.18-1.38-3.79-1.76-5.55-1.09-5.03,1.62-3.08,3.73-4.94.43-.38,3.3-4.81,3.52-5.44.35-.99.18-3.11.29-3.22.24-.25,4.75.12,6.85-1.08,1.83-1.04,3.39-4.36,6.91-4.67,1.55-.14.6,1.28,1.85,2.59,1.8,1.88,9.94.42,12.67-.19,2.94-.66,5.9-2.19,8.78-3.08-.5-1.5-1.23-8.83-1.97-9.48-.93-.81-5.7.58-7.14.44-.33-.03-5.93-2.24-6.14-2.49s-.17-3.59-.04-3.73c.36-.39,9.08-1.49,10.36-1.15,1.97.53,5.49,3.98,5.6,6.23.91.65,3.32-3.17,5.98-2.61.43.09,2.31,5.31,5.52,6.77,5.41,2.45,7.86-.91,11.15-.37.62.1.21,1.6.99,2.28.32.28,7.25,3.78,7.66,3.89,1.97.56,3.29-1.41,4.87-1.65,2.85-.43,2.69,1.71,4.41,3.2,3.83,3.33,4.29.27,7.82-1.15,2.75-1.11,5.93-1.37,8.81-2.06,1.04,1.32-1.64,2.56-2.22,3.53l5.09-1.6.96,2.55c.56-1.22,8.17-6.27,8.64-5.74.2.98-.29,4.77.03,5.08s6.75,1.3,7.63,3.54c.02.87-4.88,5.18-5.65,6.49-1.57,2.7-1.6,8.93-4.58,10.79-1.28.8-3.53-.53-5.36-.33-3.42.38-2.92,3.6-4.86,5.73,1.83,0,4.05-.49,3.59,1.95-.87,4.59-5.39,11.66-8.36,15.33-.75.93-2.66,1.87-2.75,2.04-.3.52-.28,4.67-.07,4.91.09.11,1.89.38,2.7.81,7.08,3.79,9.27,7.11,14.71,11.83,5.75,4.99,14.12,5.3,20.55,10.46,3.31,2.66,5.85,6.89,9.72,8.82,4.74,2.36,11.91,1.57,15.2,6.54,1.1,1.66,1.09,3.46,2.56,5.12,1.57,1.78,13.11,8.16,15.38,8.32,3.52.24,10.12-2.12,12.08-5.21,1.96-6.69,6.68-12.17,8.65-18.83,1.2-4.05,1.52-8.59,2.63-12.71.72-2.66,2.85-5.87,3.12-8.42.36-3.38-1.45-6.67-1.29-10.16.1-2.19,1.17-3.75,1.33-5.74,1.03-13.15-.17-23.85,4.61-36.93,1.22-3.34,3.68-6.56,4.8-9.91,1.58-4.73.78-11.6,5.32-14.49,3.42-2.18,6.01.63,7.77,3.67,2.97,5.15,10.57,27.45,12.19,33.84.81,3.19,1.45,6.5,1.74,9.76.38,4.22-.67,21.27,6.07,21.34,3.06.03,5.33-3.18,9.76-1.37,1.53.63,5.31,5.56,6.86,7.2,3.79,3.99,6.56,4.14,6.76,11.15.14,4.58.13,6.94.54,11.59.3,3.4.05,7.27.87,10.64,1.42,5.84,8.16,10.45,9.27,17.57.99,6.32-.89,8.4-1.62,13.43-.9,6.23,3.59,5.01,4.23,6.97,1.43,4.36-2.44,7.89,3.09,11.62,1.29.87,7.86,4.17,9.34,4.73,1.74.65,3.74.27,5.2,1.19,2.04,1.3,1.71,5.29,3.2,6.39,1.03.77,2.44.41,3.55.92,1.24.57,4.98,4.72,6.84,5.94,2.16,1.42,10.45,4.31,9.71,7.3-.41,1.67-3.37,3.41-3.01,5.76s5.43,6.11,6.57,8.18c3.21,5.83,3.1,14.97,5.57,19.36,2.62,4.65,5.25.79,6.56,1.09,1.03.23,1.84,3.97,3.59,4.75,2.35,1.05,5.21-.84,7.04,1.9,4.23,6.34-4.22,13.96,3.83,24.3,3.41,4.38,9.11,6.16,11.15,8.67,1.6,1.98,1.85,5.44,2.98,7.88s5.5,9.85,7.06,12.12c1.07,1.55,4.09,3.51,4.23,3.75Z"/>
        <path class="cls-1" d="M531.37,546.44c.68.39,2,4.12,1.98,5.22-.06,4.62-2.26,18.05-3.32,22.91-.11.52-.27,1.59-.77,1.77l-3.51-3.83c-1.54,2.61,1.1,6.98.68,9.18-.2,1.07-3.63.85-3.85,1.08-.96.97,2.24,10.19-3.45,8.19-1.06-.37-2.07-3.63-4.25-3.1.04,2.75.13,6.09-3.02,6.89-2.8.71-2.71.58-5.35,1.67-5.31,2.21-3.54-.76-5.47-1.43-1.53-.53-5.01.38-5.89-.19-.24-.15-1.49-4.15-2.09-5.26-2.29-4.2-5.43-8.13-6.14-13.04-.59-4.07.4-8.73-.21-12.58-.33-2.09-2.25-4.42-2.98-6.61-1.94-5.81-2.2-11.53-.81-17.41,3.31,1.33,7.54,2.21,10.66,3.72,3.41,1.64,7.99,6.65,11.44,7.12,4.65.64,15.28-4.12,20.89-3.32,1.4-.68,4.03-1.81,5.46-.99Z"/>
      </g>
    </g>
    <g>
      <path class="cls-2" d="M706.7,230.81c3.65,3.62,7.09,7.56,10.81,11.19l9.5-55.14,6.49-1.74,4.98-46.91c7.07.56,14.2-1.18,21.28-1.7,9.28-.69,23.08-2.1,31.99-1.5,4.2.28,8.24,2.2,12.24,1.5,4.08,15.45,4.82,31.59,3.51,47.5.39.38,11.98-.1,8.51,3.26-.71.68-10.37,1.59-12.26,1.74-17.12,1.39-34.32.91-51.52,1.03l-23.23-1.52.02,33.27c-.03,1.18-.5,2.28-.54,3.46-1.07,29.17-4.6,58.06-8.55,86.95-4.5,32.95-10.49,65.72-13.93,98.82l67.75,3.5,57.75,5.5c-1.13-21.92-2.41-43.85-4-65.75-3.18-43.65-9.53-89.05-11.02-132.48-.33-9.78-1-26.69.64-35.9.15-.86.49-2.39,1.62-2.37.95.23,2.7,8.51,3.02,9.98,6.94,31.3,6.47,64.4,7.75,96.25,1.37,34.01,1.85,68.07,4.98,102.02.89,9.66,2.27,19.31,3.47,28.93,11.31,1.95,22.81,3.02,34.13,4.96,2.24.38,12.57,1.91,13.44,3.06,1.44,1.89-.06,4.26-1.9,5.19-6.79.09-13.63-.1-20.42-.38-72.7-2.94-145.21-11.55-218-15-162.27-7.69-326.54-4.66-488.48,6.97-31.62,2.27-62.94,5.76-94.5,8.5-15.81,1.38-36.42,3.37-52.01,2.02-1.72-.15-4.34-.28-4.65-2.38-.21-1.43.69-2.36,1.91-2.89,3.41-1.49,11.01-2.68,14.99-3.51,13.51-2.81,27.27-4.59,41.02-5.73l5-116.75,2-28c2.47-25.66,5.87-51.19,11.08-76.42,1.34-2.19,8.84-.41,9.38-2.15.25-.79-.45-2.34-.49-3.41-.35-11.9,1.02-26.72,3.07-38.47.39-2.26,1.07-2.99,3.23-3.77,10.07-3.64,34.3-5.64,45.45-6.05,2.36-.09,15.07-.3,16.06.47l-.29,50.54c1.8.4,8.29-.15,7.49,2.73-.31,1.11-7.32,1.64-8.75,1.77-8.84.83-18.15,1.33-26.98,1.52-15.42.35-30.96-.61-46.27-2.02l.52,29.77c-.02,1.18-.52,2.28-.54,3.46-.71,36.86-3.89,73.38-7.99,110.01-2.85,25.44-6.53,50.83-9.49,76.25l119.5-8.5c-.96-16.94-2.25-33.87-4.01-50.75-4.14-39.71-11.67-79.94-14.99-119.51-.97-11.49-1.57-24.52-1.02-36.02.07-1.43.6-7.97.99-8.51.98-1.33,1.52-.76,2.07.48,1.83,4.11,3.76,15.34,4.72,20.28,1.77,9.02,3.26,18.63,4.23,27.77.32,3,.06,7.21.52,9.98.1.59.3,1.18.97,1.27.15-.98.51-1.94.92-2.84,23.64-51.56,87.74-93.19,139.45-112.55,101.81-38.1,226.8-23.44,317.89,34.87,22.31,14.28,50.7,35.28,69.43,53.82ZM492.95,141.57c-19.09-3.11-38.54-4.16-57.91-4.04l-1.53,39.97c19.78-.8,39.43,1.52,58.5,6.5l.93-42.43ZM427.52,138c-19.89.25-39.85,2.31-59.28,6.46l-3.71,51.53c18.96-9.18,39.49-15.08,60.47-17.52l2.53-40.47ZM801.51,141c-13.2,3.42-26.78.81-40.27,1.52l-21.23-1.52-4,44.01,33.23-2.02,35.27.52c-2.69-13.93-4.57-28.3-3-42.49ZM552.01,210l2.27-54.52c-17.58-6.02-35.84-10.36-54.27-12.98l1.06,44.44,22.78,8.47,28.16,14.59ZM360.52,146c-19,3.67-37.64,10.04-55.26,17.99l-3.74,76.51c16.09-15.22,33.74-28.86,53.24-39.51l5.76-54.99ZM156.02,152c-19.65,2.86-39.61,3.83-59.45,2.55-1.62,14.53.98,29.57-2.55,43.94l32.73-2.02,29.77,1.02c-.79-14.37-1.38-28.82-1.03-43.28.02-.85.16-1.47.53-2.22ZM610.01,258l1.26-77.51c-16.03-9.12-32.96-16.57-50.25-22.99l1.08,59.17c17.4,12.07,33.4,25.94,47.91,41.33ZM295.01,169c-22.42,10.17-42.32,25.34-60.17,42.12-1.22,17.35-1.69,34.77-2.84,52.13-.76,11.49-2.29,23.03-2.99,34.51-.1,1.66-.27,3.6-.31,5.21s1.16.55,2.04.52c7.57-.21,15.09-1.86,22.67-2.09,10.74-17.41,23.29-33.62,36.83-48.92l1.77-46.73,2.99-36.75ZM665.02,295.5c-.13-25.6-.03-51.2,1.42-76.65-14.97-12.97-31.48-24.11-48.42-34.35,1.27,29.1,4.3,58,3.1,87.15l16.9,22.6,27,1.26ZM491.45,195.07c-18.78-6.05-38.66-8.63-58.43-8.07l-5,106,64.51-.5-1.07-97.43ZM424.52,188c-21.35,2.23-42.44,8.73-61.26,19l-8.25,88.01,65-1.5,4.5-105.5ZM552.52,292.5l-1.25-69.5c-15.61-10.25-32.35-18.78-49.99-25.01l-1.51,94.51h52.75ZM347.02,295.5l6.99-83.5c-19.64,11.52-37.8,25.81-53.22,42.52l-3.78,42.97,50-2ZM224.52,221.5c-.64-.51-4.81,3.99-5.51,4.73-12.37,12.96-25.86,26.5-37.46,40.04-.53.62-1.21.96-1.92,1.32.47,14.14,1.48,28.29,2.93,42.36l33.22-4.95,8.74-83.51ZM714.43,259.08c-16.14-8.65-28.03-23.06-41.91-34.58l2.49,71.5,35.5,2,3.92-38.92ZM593.72,258.29c-9.12-9.37-18.86-18.02-29.26-25.99-.47-.36-2.24-2.15-2.71-1.31l-2.24,61.01,53.5.99-1.88-14.87c-5.29-7.07-11.28-13.54-17.41-19.84ZM289.01,298.5l1-32c-9.29,10.31-17.34,21.69-24.99,33.25l23.99-1.26ZM688.01,410l-37.41-69.83c-5.03-8.49-9.62-17.26-14.88-25.62-1.04-1.66-5.56-9.38-6.56-9.94-.82-.47-1.95-.54-2.88-.62-18.31-1.54-38.15.75-56.5-1-51.73-.25-103.46-.08-155,1.54-8,.25-16.04.25-24.04.46l-133.38,6.51c-21.19,31.22-32.24,68.02-53.36,99.25-.01.4,4.59.31,5.28.28,20.32-.92,40.63-2.65,60.96-3.54,135.01-5.89,270.93-3.85,406.04,2,3.79.16,7.79.95,11.73.52ZM664.52,305l-19.51-.24,19.75,33.75-.25-33.51ZM675.02,306.25v51l27.5,51.25c2.52-33.96,4.46-68.02,7.01-102-8.75-.18-17.52-.22-26.27-.48-1.46-.04-7.7-1.5-8.23.23ZM246.52,312.01l-18.45.55-4.55,39.44,23-39.99ZM215.02,313l-32.51.5c2.45,28.56,4.2,57.28,8.07,85.68.23,1.69,1.6,12.19,2.26,12.35l7.15-.55c1.02-5.66,2.68-11.29,4.5-16.75,1.7-5.08,6.62-14.38,7.4-18.6,1.05-5.63.27-15.27.6-21.4.47-8.77,1-17.66,1.53-26.47.29-4.9,1.41-9.81,1-14.76Z"/>
      <path class="cls-2" d="M792.66,321.65c-.3.18-.45,1.02-.94,1.28-6.68,3.49-15.72,2.31-22.93,2.05-5.78-.21-11.52-.17-17.27-.98l.29-2.05c12.51-2.68,25.9-5.9,38.71-4.45-.29-2.51-.79-5.25-.99-7.75-1.16-14.66-1.43-29.37-3.01-43.99-.87-8.1-2.31-21.52-10.8-25.2-11.59-5.02-16.41,11.7-18.55,19.84-5.36,20.39-5.42,42.33-7.13,63.27l-1.72.81-.72-.8c-.32-7.31-.34-14.63-.56-21.94-.55-18.88-1.4-38.29,7.22-55.74,12.75-25.84,32.52-19.24,38.52,6.51,2.33,9.99,4.46,23.1,5.68,33.32,1.07,8.95,2.11,25.65-2.18,33.69-1.34,2.51-2.21,1.3-3.61,2.14Z"/>
      <path class="cls-2" d="M141.37,319.86c-.2.23-4.59,2.76-5.22,3.03-9.48,4.11-24.1,1.76-34.14.6-.12-1.12-.11-1.31.85-1.9,2.07-1.26,9.3-2.4,12.06-2.94,7.06-1.38,14.4-2.9,21.59-1.66-.34-2.69-.93-6.07-1.02-8.73-.58-18.24,1.93-35.87-1.63-54.37-4.05-21.12-13.27-7.23-17.74,3.97-8.02,20.13-10.89,43.4-14.85,64.65-.75,2.27-2.19,1.65-2.78-.3,1.41-21.65,4.02-43.97,10.88-64.6,2.82-8.5,10.85-28.23,22.75-23.49,6.84,2.73,9.03,14.39,10.24,20.76,3.19,16.81,5.24,37.9,1.99,54.69-.37,1.92-1.99,9.12-2.98,10.27Z"/>
    </g>
  </g>
</svg>